{"title":"Watch.What.Happens.Live.2017.05.01.Naomi.Watts.Susan.Sarandon","magnet":"magnet:?xt=urn:btih:4e382f8cd3485fb14b19821a04820426604b6840&dn=Watch.What.Happens.Live.2017.05.01.Naomi.Watts.Susan.Sarandon&tr=udp%3A%2F%2Ftracker.leechers-paradise.org%3A6969&tr=udp%3A%2F%2Fzer0day.ch%3A1337&tr=udp%3A%2F%2Fopen.demonii.com%3A1337&tr=udp%3A%2F%2Ftracker.coppersurfer.tk%3A6969&tr=udp%3A%2F%2Fexodus.desync.com%3A6969","uploader":"brablay","categoryP":"video","categoryS":"hd___tv_shows","size":"686677201","seeders":"0","leechers":"1","description":"What Happens Live with Andy Cohen Season 14, Episode 78 Naomi Watts; Susan Sarandon\r\n\r\nFirst Aired: May 1, 2017\r\n\r\nVideo\r\nID                                       : 1\r\nFormat                                   : AVC\r\nFormat/Info                              : Advanced Video Codec\r\nFormat profile                           : <a href=\"/cdn-cgi/l/email-protection\" class=\"__cf_email__\" data-cfemail=\"1a577b73745a562e\">[email&#xA0;protected]</a>\r\nFormat settings, CABAC                   : Yes\r\nFormat settings, RefFrames               : 1 frame\r\nFormat settings, GOP                     : M=1, N=60\r\nCodec ID                                 : V_MPEG4/ISO/AVC\r\nDuration                                 : 21 min 48 s\r\nBit rate                                 : 4 096 kb/s\r\nWidth                                    : 1 920 pixels\r\nHeight                                   : 1 080 pixels\r\nDisplay aspect ratio                     : 16:9\r\nFrame rate mode                          : Constant\r\nFrame rate                               : 29.970 (30000/1001) FPS\r\nColor space                              : YUV\r\nChroma subsampling                       : 4:2:0\r\nBit depth                                : 8 bits\r\nScan type                                : Progressive\r\nBits/(Pixel*Frame)                       : 0.066\r\nStream size                              : 643 MiB (98%)\r\nWriting library                          : x264 core 120\r\nEncoding settings                        : cabac=1 / ref=1 / deblock=1:0:0 / analyse=0x1:0x111 / me=hex / subme=6 / psy=1 / psy_rd=1.00:0.00 / mixed_ref=0 / me_range=16 / chroma_me=0 / trellis=1 / 8x8dct=0 / cqm=0 / deadzone=21,11 / fast_pskip=1 / chroma_qp_offset=-2 / threads=8 / sliced_threads=0 / nr=0 / decimate=1 / interlaced=0 / bluray_compat=0 / constrained_intra=0 / bframes=0 / weightp=2 / keyint=60 / keyint_min=25 / scenecut=0 / intra_refresh=0 / rc=abr / mbtree=0 / bitrate=4096 / ratetol=1.0 / qcomp=0.60 / qpmin=10 / qpmax=51 / qpstep=4 / ip_ratio=1.40 / aq=1:1.00\r\nDefault                                  : Yes\r\nForced                                   : No\r\n\r\nAudio\r\nID                                       : 2\r\nFormat                                   : AAC\r\nFormat/Info                              : Advanced Audio Codec\r\nFormat profile                           : LC\r\nCodec ID                                 : A_AAC\r\nDuration                                 : 21 min 48 s\r\nBit rate                                 : 74.7 kb/s\r\nChannel(s)                               : 2 channels\r\nChannel positions                        : Front: L R\r\nSampling rate                            : 44.1 kHz\r\nFrame rate                               : 43.066 FPS (1024 SPF)\r\nCompression mode                         : Lossy\r\nStream size                              : 11.6 MiB (2%)\r\nDefault                                  : Yes\r\nForced                                   : No","last_updated":"2017-11-05T12:03:24.679Z","parsed":{"xt":"urn:btih:4e382f8cd3485fb14b19821a04820426604b6840","dn":"Watch.What.Happens.Live.2017.05.01.Naomi.Watts.Susan.Sarandon","tr":["udp://exodus.desync.com:6969","udp://open.demonii.com:1337","udp://tracker.coppersurfer.tk:6969","udp://tracker.leechers-paradise.org:6969","udp://zer0day.ch:1337"],"infoHash":"4e382f8cd3485fb14b19821a04820426604b6840","infoHashBuffer":{"type":"Buffer","data":[78,56,47,140,211,72,95,177,75,25,130,26,4,130,4,38,96,75,104,64]},"name":"Watch.What.Happens.Live.2017.05.01.Naomi.Watts.Susan.Sarandon","announce":["udp://exodus.desync.com:6969","udp://open.demonii.com:1337","udp://tracker.coppersurfer.tk:6969","udp://tracker.leechers-paradise.org:6969","udp://zer0day.ch:1337"],"urlList":[]}}